<svg width="22" height="20" viewBox="0 0 22 20" fill="none" xmlns="http://www.w3.org/2000/svg">
<path id="Icon" d="M14.773 10.4461L13.65 9.32307C13.8 8.49485 13.5637 7.7503 12.9413 7.08942C12.3189 6.42851 11.5551 6.17307 10.65 6.32307L9.5269 5.20002C9.75254 5.09873 9.98394 5.02277 10.2211 4.97214C10.4583 4.92149 10.7179 4.89617 11 4.89617C12.1346 4.89617 13.0977 5.292 13.8894 6.08367C14.681 6.87533 15.0769 7.83847 15.0769 8.97307C15.0769 9.25512 15.0515 9.51793 15.0009 9.76152C14.9502 10.0051 14.8743 10.2333 14.773 10.4461ZM17.9538 13.5577L16.85 12.5231C17.4833 12.0397 18.0458 11.5106 18.5375 10.9356C19.0291 10.3606 19.45 9.7064 19.8 8.97307C18.9666 7.28973 17.7708 5.95223 16.2125 4.96057C14.6541 3.9689 12.9166 3.47307 11 3.47307C10.5166 3.47307 10.0416 3.5064 9.57495 3.57307C9.10829 3.63973 8.64995 3.73973 8.19995 3.87307L7.0346 2.70771C7.66665 2.45643 8.31216 2.27117 8.97113 2.15194C9.63009 2.03271 10.3064 1.97309 11 1.97309C13.3435 1.97309 15.457 2.61924 17.3403 3.91154C19.2236 5.20386 20.5974 6.89103 21.4615 8.97307C21.0909 9.86665 20.6124 10.7006 20.0259 11.475C19.4393 12.2493 18.7486 12.9435 17.9538 13.5577ZM18.7615 19.3422L14.7154 15.3269C14.2025 15.5166 13.6343 15.6717 13.0106 15.7923C12.3868 15.9128 11.7166 15.973 11 15.973C8.64997 15.973 6.53652 15.3269 4.6596 14.0346C2.78269 12.7423 1.40897 11.0551 0.538452 8.97307C0.907686 8.08973 1.38461 7.26569 1.96923 6.50094C2.55384 5.73621 3.19744 5.07307 3.9 4.51154L1.13075 1.71154L2.1846 0.657715L19.8153 18.2884L18.7615 19.3422ZM4.95383 5.56534C4.42563 5.98586 3.91184 6.49132 3.41248 7.08172C2.91311 7.6721 2.50894 8.30255 2.19995 8.97307C3.03329 10.6564 4.22912 11.9939 5.78745 12.9856C7.34579 13.9772 9.08329 14.4731 11 14.4731C11.4551 14.4731 11.9083 14.4346 12.3596 14.3577C12.8109 14.2807 13.1936 14.2013 13.5077 14.1192L12.2423 12.823C12.0718 12.8923 11.8743 12.9474 11.65 12.9884C11.4256 13.0294 11.2089 13.05 11 13.05C9.86535 13.05 8.90222 12.6541 8.11055 11.8625C7.31889 11.0708 6.92305 10.1077 6.92305 8.97307C6.92305 8.7705 6.94357 8.55864 6.9846 8.33749C7.02564 8.11632 7.08076 7.91407 7.14998 7.73074L4.95383 5.56534Z" fill="#53772F"/>
</svg>
