<svg width="40" height="40" viewBox="0 0 40 40" fill="none" xmlns="http://www.w3.org/2000/svg">
<path d="M20.0022 24.0769C21.1353 24.0769 22.0977 23.6803 22.8894 22.8871C23.681 22.0939 24.0769 21.1308 24.0769 19.9977C24.0769 18.8646 23.6803 17.9022 22.8871 17.1106C22.0939 16.3189 21.1308 15.9231 19.9977 15.9231C18.8646 15.9231 17.9022 16.3197 17.1106 17.1128C16.3189 17.906 15.9231 18.8692 15.9231 20.0023C15.9231 21.1353 16.3196 22.0977 17.1128 22.8894C17.906 23.681 18.8691 24.0769 20.0022 24.0769ZM20 22.7C19.25 22.7 18.6125 22.4375 18.0875 21.9125C17.5625 21.3875 17.3 20.75 17.3 20C17.3 19.25 17.5625 18.6125 18.0875 18.0875C18.6125 17.5625 19.25 17.3 20 17.3C20.75 17.3 21.3875 17.5625 21.9125 18.0875C22.4375 18.6125 22.7 19.25 22.7 20C22.7 20.75 22.4375 21.3875 21.9125 21.9125C21.3875 22.4375 20.75 22.7 20 22.7ZM20.0013 27C17.7017 27 15.6064 26.3657 13.7154 25.0971C11.8243 23.8285 10.432 22.1295 9.53845 20C10.432 17.8705 11.8239 16.1715 13.714 14.9029C15.6041 13.6343 17.699 13 19.9986 13C22.2982 13 24.3935 13.6343 26.2846 14.9029C28.1756 16.1715 29.5679 17.8705 30.4615 20C29.5679 22.1295 28.176 23.8285 26.2859 25.0971C24.3958 26.3657 22.3009 27 20.0013 27ZM20 25.5C21.8833 25.5 23.6125 25.0041 25.1875 24.0125C26.7625 23.0208 27.9666 21.6833 28.8 20C27.9666 18.3166 26.7625 16.9791 25.1875 15.9875C23.6125 14.9958 21.8833 14.5 20 14.5C18.1166 14.5 16.3875 14.9958 14.8125 15.9875C13.2375 16.9791 12.0333 18.3166 11.2 20C12.0333 21.6833 13.2375 23.0208 14.8125 24.0125C16.3875 25.0041 18.1166 25.5 20 25.5Z" fill="#53772F"/>
</svg>
