<svg width="40" height="40" viewBox="0 0 40 40" fill="none" xmlns="http://www.w3.org/2000/svg">
<path d="M20 20.7817C19.0263 20.7817 18.2051 20.4507 17.5364 19.7888C16.8677 19.1269 16.5333 18.314 16.5333 17.3502C16.5333 16.3865 16.8677 15.5736 17.5364 14.9117C18.2051 14.2497 19.0263 13.9188 20 13.9188C20.9737 13.9188 21.7949 14.2497 22.4636 14.9117C23.1323 15.5736 23.4667 16.3865 23.4667 17.3502C23.4667 18.314 23.1323 19.1269 22.4636 19.7888C21.7949 20.4507 20.9737 20.7817 20 20.7817ZM20 19.198C20.5306 19.198 20.9744 19.0213 21.3313 18.668C21.6882 18.3147 21.8667 17.8755 21.8667 17.3502C21.8667 16.825 21.6882 16.3858 21.3313 16.0324C20.9744 15.6791 20.5306 15.5025 20 15.5025C19.4694 15.5025 19.0256 15.6791 18.6687 16.0324C18.3118 16.3858 18.1333 16.825 18.1333 17.3502C18.1333 17.8755 18.3118 18.3147 18.6687 18.668C19.0256 19.0213 19.4694 19.198 20 19.198ZM20.1237 29.9658C20.0429 29.9887 19.9571 29.9887 19.8763 29.9658C17.6246 29.3289 15.7558 27.9961 14.2697 25.9675C12.7566 23.9019 12 21.5925 12 19.0396V13.2951C12 13.0964 12.1237 12.9186 12.31 12.8496L19.8349 10.0612C19.9414 10.0217 20.0586 10.0217 20.1651 10.0612L27.69 12.8496C27.8763 12.9186 28 13.0964 28 13.2951V19.0396C28 21.5925 27.2434 23.9019 25.7303 25.9675C24.2442 27.9961 22.3754 29.3289 20.1237 29.9658ZM20.1647 11.7461C20.0584 11.7068 19.9416 11.7068 19.8353 11.7461L13.9104 13.936C13.7238 14.005 13.6 14.1828 13.6 14.3817V19.0396C13.6 20.044 13.7453 21.0152 14.0359 21.9533C14.2832 22.7516 14.6124 23.5043 15.0236 24.2115C15.1463 24.4225 15.4127 24.494 15.6347 24.3924C16.2358 24.1174 16.8598 23.8959 17.5067 23.728C18.2937 23.5236 19.1248 23.4214 20 23.4214C20.8752 23.4214 21.7063 23.5236 22.4933 23.728C23.1402 23.8959 23.7642 24.1174 24.3653 24.3924C24.5873 24.494 24.8537 24.4225 24.9764 24.2115C25.3876 23.5043 25.7168 22.7516 25.9641 21.9533C26.2547 21.0152 26.4 20.044 26.4 19.0396V14.3817C26.4 14.1828 26.2762 14.005 26.0896 13.936L20.1647 11.7461ZM20 25.0051C19.3121 25.0051 18.6506 25.0789 18.0154 25.2264C17.5969 25.3236 17.1937 25.4467 16.8058 25.5956C16.5076 25.71 16.4327 26.0868 16.6624 26.3085C17.0677 26.6997 17.5009 27.0493 17.962 27.3574C18.556 27.7542 19.1884 28.0637 19.8595 28.2859C19.9507 28.3161 20.0493 28.3161 20.1405 28.2859C20.8113 28.0637 21.4421 27.7542 22.0328 27.3574C22.4914 27.0494 22.923 26.6998 23.3275 26.3087C23.5571 26.0868 23.4821 25.71 23.1841 25.5954C22.7971 25.4466 22.3956 25.3236 21.9795 25.2264C21.3477 25.0789 20.6879 25.0051 20 25.0051Z" fill="#2C2E2C"/>
</svg>
