<svg width="40" height="40" viewBox="0 0 40 40" fill="none" xmlns="http://www.w3.org/2000/svg">
<path d="M16.5 15V13.5C16.5 12.6716 17.1716 12 18 12H21.5C22.3284 12 23 12.6716 23 13.5V15M14.5 19.5L19.4874 21.3136C19.8185 21.434 20.1815 21.434 20.5126 21.3136L25.5 19.5M13 28H27C27.8284 28 28.5 27.3284 28.5 26.5V17.5C28.5 16.6716 27.8284 16 27 16H13C12.1716 16 11.5 16.6716 11.5 17.5V26.5C11.5 27.3284 12.1716 28 13 28Z" stroke="#2C2E2C" stroke-width="1.5" stroke-linecap="round" stroke-linejoin="round"/>
</svg>
