<svg width="132" height="58" fill="none" xmlns="http://www.w3.org/2000/svg"><path d="m9.944 27.5 4.696 1.986a40.487 40.487 0 0 1 1.942-3.453 34.592 34.592 0 0 1 2.319-3.248l-2.942-.564a1.003 1.003 0 0 0-.57.019c-.185.061-.351.166-.498.313L9.944 27.5Zm6.214 3.203 5.426 5.414c1.514-.683 3.037-1.551 4.57-2.606a31.514 31.514 0 0 0 4.424-3.704c2.064-2.064 3.64-4.265 4.73-6.603 1.09-2.338 1.703-5.038 1.838-8.1-3.062.135-5.757.748-8.087 1.838s-4.526 2.666-6.59 4.73a30.963 30.963 0 0 0-3.705 4.442c-1.054 1.546-1.922 3.075-2.605 4.589Zm9.93-4.552a2.762 2.762 0 0 1-.844-2.026c0-.787.282-1.462.844-2.025a2.79 2.79 0 0 1 2.05-.844 2.79 2.79 0 0 1 2.049.844c.563.563.844 1.238.844 2.025 0 .788-.281 1.463-.844 2.026a2.79 2.79 0 0 1-2.05.844 2.79 2.79 0 0 1-2.049-.844ZM24.75 42.343l4.947-4.947c.147-.147.252-.313.313-.497s.068-.375.018-.572l-.563-2.94a33.829 33.829 0 0 1-3.248 2.312 41.471 41.471 0 0 1-3.453 1.937l1.986 4.707Zm14.187-29.005c.214 3.522-.284 6.761-1.494 9.718-1.21 2.958-3.096 5.717-5.656 8.277l-.332.332-.332.332.774 3.932a3.09 3.09 0 0 1-.059 1.5c-.142.485-.4.913-.774 1.287l-6.98 6.944-3.178-7.486-6.83-6.83L6.59 28.13l6.933-6.944a3.156 3.156 0 0 1 1.292-.793c.488-.155.99-.18 1.506-.077l4.006.81c.123-.122.227-.233.313-.33a6.95 6.95 0 0 1 .314-.333c2.56-2.56 5.317-4.441 8.271-5.643 2.954-1.201 6.191-1.695 9.712-1.482Zm-29.13 23.65c.75-.75 1.661-1.12 2.734-1.112 1.072.009 1.983.388 2.733 1.137.75.75 1.122 1.66 1.118 2.733-.003 1.073-.38 1.984-1.13 2.733-.65.651-1.695 1.21-3.134 1.674-1.439.464-3.103.785-4.993.962.177-1.89.504-3.554.98-4.993.478-1.439 1.041-2.484 1.693-3.135Zm1.368 1.392c-.369.37-.713.97-1.032 1.805-.32.834-.53 1.695-.634 2.582a10.272 10.272 0 0 0 2.582-.647c.834-.328 1.436-.676 1.804-1.045.384-.383.579-.84.586-1.371.008-.531-.18-.988-.564-1.371a1.79 1.79 0 0 0-1.37-.551 1.96 1.96 0 0 0-1.372.599ZM61.298 37.365a.562.562 0 0 1-.441-.189 4.54 4.54 0 0 1-.273-.294l-.861-1.176c-.756.336-1.631.504-2.625.504-1.204 0-2.233-.203-3.087-.609-.84-.42-1.498-1.057-1.974-1.911-.462-.868-.714-1.953-.756-3.255a77.767 77.767 0 0 1 0-3.549c.042-1.288.308-2.359.798-3.213.49-.868 1.162-1.512 2.016-1.932.868-.434 1.869-.651 3.003-.651 1.148 0 2.149.217 3.003.651a4.6 4.6 0 0 1 2.037 1.932c.49.854.749 1.925.777 3.213.028.616.042 1.211.042 1.785 0 .56-.014 1.148-.042 1.764-.07 1.932-.574 3.367-1.512 4.305l1.386 1.974a.244.244 0 0 1 .042.063.546.546 0 0 1 .021.168.338.338 0 0 1-.105.294.427.427 0 0 1-.315.126h-1.134Zm-4.2-2.94c1.064 0 1.939-.322 2.625-.966.686-.644 1.057-1.687 1.113-3.129.028-.63.042-1.19.042-1.68 0-.504-.014-1.064-.042-1.68-.028-.966-.21-1.75-.546-2.352-.322-.602-.756-1.043-1.302-1.323s-1.176-.42-1.89-.42a4.12 4.12 0 0 0-1.869.42c-.546.28-.98.721-1.302 1.323-.322.602-.504 1.386-.546 2.352a74.5 74.5 0 0 0-.021 1.68c0 .49.007 1.05.021 1.68.056 1.442.427 2.485 1.113 3.129.686.644 1.554.966 2.604.966ZM69.84 36.21c-.896 0-1.66-.196-2.29-.588-.615-.406-1.084-.966-1.406-1.68-.322-.714-.483-1.533-.483-2.457v-5.922c0-.14.042-.252.126-.336a.486.486 0 0 1 .357-.147h1.05a.42.42 0 0 1 .336.147.42.42 0 0 1 .147.336v5.817c0 2.086.91 3.129 2.73 3.129.868 0 1.56-.273 2.079-.819.532-.56.798-1.33.798-2.31v-5.817c0-.14.042-.252.126-.336a.486.486 0 0 1 .357-.147h1.029c.154 0 .273.049.357.147a.454.454 0 0 1 .126.336v9.954a.53.53 0 0 1-.126.357c-.084.084-.203.126-.357.126h-.966a.53.53 0 0 1-.357-.126.53.53 0 0 1-.126-.357v-.924c-.378.49-.84.882-1.386 1.176-.532.294-1.24.441-2.121.441Zm9.042-.21a.53.53 0 0 1-.357-.126.53.53 0 0 1-.126-.357v-9.954c0-.14.042-.252.126-.336a.486.486 0 0 1 .357-.147h1.008a.42.42 0 0 1 .336.147.454.454 0 0 1 .126.336v9.954a.53.53 0 0 1-.126.357.454.454 0 0 1-.336.126h-1.008Zm-.168-12.957a.53.53 0 0 1-.357-.126.53.53 0 0 1-.126-.357v-1.134c0-.14.042-.252.126-.336a.486.486 0 0 1 .357-.147h1.323a.42.42 0 0 1 .336.147.42.42 0 0 1 .147.336v1.134c0 .14-.05.259-.147.357a.454.454 0 0 1-.336.126h-1.323Zm9.222 13.167c-.994 0-1.855-.189-2.583-.567a4.115 4.115 0 0 1-1.66-1.659c-.391-.728-.601-1.596-.63-2.604-.013-.21-.02-.49-.02-.84s.007-.63.02-.84c.029-1.008.239-1.869.63-2.583a3.95 3.95 0 0 1 1.66-1.659c.728-.392 1.589-.588 2.583-.588.812 0 1.505.112 2.079.336.588.224 1.07.511 1.449.861.378.35.658.728.84 1.134.196.406.3.791.315 1.155a.368.368 0 0 1-.126.336.53.53 0 0 1-.357.126h-1.008c-.14 0-.245-.028-.315-.084-.07-.07-.14-.182-.21-.336-.252-.686-.595-1.169-1.03-1.449-.433-.28-.972-.42-1.616-.42-.84 0-1.526.259-2.058.777-.518.518-.798 1.351-.84 2.499-.014.504-.014.994 0 1.47.042 1.162.322 2.002.84 2.52.532.504 1.218.756 2.058.756.644 0 1.183-.14 1.617-.42.434-.28.777-.763 1.029-1.449.07-.154.14-.259.21-.315.07-.07.175-.105.315-.105h1.008a.53.53 0 0 1 .357.126c.098.084.14.196.126.336a3.064 3.064 0 0 1-.19.903 3.487 3.487 0 0 1-.545.945 4.017 4.017 0 0 1-.903.84 5.027 5.027 0 0 1-1.323.588c-.504.14-1.078.21-1.722.21Zm7.68-.21a.53.53 0 0 1-.356-.126.53.53 0 0 1-.126-.357V21.573c0-.14.042-.252.126-.336a.486.486 0 0 1 .357-.147h.987a.42.42 0 0 1 .336.147.42.42 0 0 1 .147.336v7.308l4.137-3.444c.168-.14.294-.231.378-.273.098-.056.252-.084.462-.084h1.113a.427.427 0 0 1 .441.441.377.377 0 0 1-.063.189.514.514 0 0 1-.189.21l-4.851 4.032 5.376 5.229c.168.14.252.266.252.378a.427.427 0 0 1-.441.441h-1.092c-.21 0-.364-.021-.462-.063a2.347 2.347 0 0 1-.378-.294l-4.683-4.473v4.347c0 .14-.05.259-.147.357a.454.454 0 0 1-.336.126h-.987Zm15.684.21c-1.19 0-2.212-.203-3.066-.609a4.415 4.415 0 0 1-1.974-1.911c-.462-.868-.721-1.953-.777-3.255a77.767 77.767 0 0 1 0-3.549c.056-1.288.322-2.359.798-3.213.49-.868 1.162-1.512 2.016-1.932.868-.434 1.869-.651 3.003-.651 1.148 0 2.149.217 3.003.651a4.6 4.6 0 0 1 2.037 1.932c.49.854.756 1.925.798 3.213.028.616.042 1.211.042 1.785 0 .56-.014 1.148-.042 1.764-.042 1.302-.301 2.387-.777 3.255a4.415 4.415 0 0 1-1.974 1.911c-.854.406-1.883.609-3.087.609Zm0-1.785c1.078 0 1.953-.322 2.625-.966.686-.644 1.057-1.687 1.113-3.129.028-.63.042-1.19.042-1.68 0-.504-.014-1.064-.042-1.68-.028-.966-.21-1.75-.546-2.352-.322-.602-.756-1.043-1.302-1.323s-1.176-.42-1.89-.42c-.686 0-1.302.14-1.848.42-.546.28-.987.721-1.323 1.323-.322.602-.504 1.386-.546 2.352a74.5 74.5 0 0 0-.021 1.68c0 .49.007 1.05.021 1.68.056 1.442.427 2.485 1.113 3.129.686.644 1.554.966 2.604.966ZM120.451 36a.53.53 0 0 1-.357-.126.53.53 0 0 1-.126-.357v-9.954c0-.14.042-.252.126-.336a.486.486 0 0 1 .357-.147h.987a.42.42 0 0 1 .336.147.42.42 0 0 1 .147.336v.924a4.203 4.203 0 0 1 1.365-1.155c.56-.308 1.274-.462 2.142-.462.91 0 1.68.203 2.31.609a3.644 3.644 0 0 1 1.449 1.659c.322.7.483 1.519.483 2.457v5.922a.53.53 0 0 1-.126.357.454.454 0 0 1-.336.126h-1.05a.53.53 0 0 1-.357-.126.53.53 0 0 1-.126-.357V29.7c0-.98-.238-1.743-.714-2.289-.476-.56-1.176-.84-2.1-.84-.868 0-1.568.28-2.1.84-.518.546-.777 1.309-.777 2.289v5.817c0 .14-.049.259-.147.357a.454.454 0 0 1-.336.126h-1.05Z" fill="#fff"/></svg>