<svg width="19" height="18" viewBox="0 0 19 18" fill="none" xmlns="http://www.w3.org/2000/svg">
<path d="M3.27778 17H15.7222C16.7041 17 17.5 16.2041 17.5 15.2222V2.77778C17.5 1.79594 16.7041 1 15.7222 1H3.27778C2.29594 1 1.5 1.79594 1.5 2.77778V15.2222C1.5 16.2041 2.29594 17 3.27778 17ZM3.27778 17L13.0556 7.22222L17.5 11.6667M7.72222 5.88889C7.72222 6.62527 7.12527 7.22222 6.38889 7.22222C5.65251 7.22222 5.05556 6.62527 5.05556 5.88889C5.05556 5.15251 5.65251 4.55556 6.38889 4.55556C7.12527 4.55556 7.72222 5.15251 7.72222 5.88889Z" stroke="#2C2E2C" stroke-width="1.5" stroke-linecap="round" stroke-linejoin="round"/>
</svg>
