<svg width="40" height="40" viewBox="0 0 40 40" fill="none" xmlns="http://www.w3.org/2000/svg">
<path d="M17.5858 12.9402C18.6226 11.0199 21.3776 11.0199 22.4143 12.9402C22.9067 13.8522 23.8709 14.4089 24.9069 14.3793C27.0882 14.317 28.4657 16.7029 27.3211 18.5609C26.7775 19.4433 26.7775 20.5567 27.3211 21.4391C28.4657 23.2971 27.0882 25.683 24.9069 25.6207C23.8709 25.5912 22.9067 26.1479 22.4143 27.0598C21.3776 28.9801 18.6226 28.9801 17.5858 27.0598C17.0935 26.1479 16.1292 25.5912 15.0933 25.6207C12.9119 25.683 11.5344 23.2971 12.679 21.4391C13.2226 20.5567 13.2226 19.4433 12.679 18.5609C11.5344 16.7029 12.9119 14.317 15.0933 14.3793C16.1292 14.4089 17.0935 13.8522 17.5858 12.9402Z" stroke="#2C2E2C" stroke-width="1.5"/>
<path d="M22.8829 20C22.8829 21.5922 21.5922 22.8829 20.0001 22.8829C18.4079 22.8829 17.1172 21.5922 17.1172 20C17.1172 18.4078 18.4079 17.1171 20.0001 17.1171C21.5922 17.1171 22.8829 18.4078 22.8829 20Z" stroke="#2C2E2C" stroke-width="1.5"/>
</svg>
