<svg width="40" height="40" viewBox="0 0 40 40" fill="none" xmlns="http://www.w3.org/2000/svg">
<path d="M24.8182 28V26.2222C24.8182 25.2792 24.4542 24.3749 23.8064 23.7081C23.1585 23.0413 22.2798 22.6667 21.3636 22.6667H14.4545C13.5383 22.6667 12.6597 23.0413 12.0118 23.7081C11.364 24.3749 11 25.2792 11 26.2222V28M30 28V26.2222C29.9994 25.4344 29.7447 24.6691 29.2757 24.0465C28.8068 23.4239 28.1502 22.9792 27.4091 22.7822M23.9545 12.1156C24.6976 12.3114 25.3563 12.7562 25.8266 13.3798C26.2969 14.0035 26.5522 14.7705 26.5522 15.56C26.5522 16.3495 26.2969 17.1165 25.8266 17.7402C25.3563 18.3638 24.6976 18.8086 23.9545 19.0044M21.3636 15.5556C21.3636 17.5192 19.817 19.1111 17.9091 19.1111C16.0012 19.1111 14.4545 17.5192 14.4545 15.5556C14.4545 13.5919 16.0012 12 17.9091 12C19.817 12 21.3636 13.5919 21.3636 15.5556Z" stroke="#2C2E2C" stroke-width="1.5" stroke-linecap="round" stroke-linejoin="round"/>
</svg>
