<svg width="40" height="40" viewBox="0 0 40 40" fill="none" xmlns="http://www.w3.org/2000/svg">
<path d="M21.2857 15.7394L26.4286 24.1157M19 15.7394L14.4286 24.1157M15 25.9106H24.7143M21.8571 13.9445C21.8571 15.0184 21.0257 15.889 20 15.889C18.9743 15.889 18.1429 15.0184 18.1429 13.9445C18.1429 12.8706 18.9743 12 20 12C21.0257 12 21.8571 12.8706 21.8571 13.9445ZM29 26.0526C29 27.1265 28.1685 27.9971 27.1429 27.9971C26.1172 27.9971 25.2857 27.1265 25.2857 26.0526C25.2857 24.9787 26.1172 24.1081 27.1429 24.1081C28.1685 24.1081 29 24.9787 29 26.0526ZM14.7143 26.0555C14.7143 27.1294 13.8828 28 12.8571 28C11.8315 28 11 27.1294 11 26.0555C11 24.9816 11.8315 24.111 12.8571 24.111C13.8828 24.111 14.7143 24.9816 14.7143 26.0555Z" stroke="#2C2E2C" stroke-width="1.5" stroke-linecap="round" stroke-linejoin="round"/>
</svg>
